<svg width="120" height="41" fill="none" xmlns="http://www.w3.org/2000/svg"><path d="M45.518 13.412a1.1 1.1 0 0 0-1.426-.14 1.16 1.16 0 0 0-.452.633c-.076.258-.062.536.038.785.1.25.28.456.511.583a1.103 1.103 0 0 0 1.406-.288 1.194 1.194 0 0 0-.077-1.573zm4.834-3.34c.158-.164.266-.373.31-.6a1.21 1.21 0 0 0-.065-.676 1.166 1.166 0 0 0-.417-.526 1.108 1.108 0 0 0-.628-.199 1.107 1.107 0 0 0-.638.188c-.19.127-.338.31-.427.525a1.21 1.21 0 0 0 .24 1.288 1.099 1.099 0 0 0 1.625 0zm-.057 8.272a1.136 1.136 0 0 0-.37-.256 1.104 1.104 0 0 0-1.243.256 1.187 1.187 0 0 0-.31.6 1.21 1.21 0 0 0 .064.678c.086.215.231.398.418.527a1.108 1.108 0 0 0 1.26 0c.187-.13.332-.312.418-.527.086-.214.108-.45.065-.677a1.186 1.186 0 0 0-.31-.601h.008z" fill="#61A568"/><path d="M61.119 8.924a12.235 12.235 0 0 0-3.75-6.036C53.422-.56 48.265-.704 42.313 1.314c-1.14.38-2.333.572-3.531.567H24.57a10.973 10.973 0 0 1-3.527-.567C15.09-.704 9.935-.56 5.987 2.888a12.27 12.27 0 0 0-3.753 6.036C-.82 20.187-.86 29.862 2.84 37.584c1.683 3.494 4.29 4.138 7.565 2.7a12.251 12.251 0 0 0 2.673-1.634 22.796 22.796 0 0 0 5.813-6.902c.255-.474.503-.956.709-1.46 1.65-3.63 4.158-5.716 7.982-5.31l4.096.085 4.092-.085c3.837-.389 6.312 1.697 7.986 5.31.223.487.454.97.71 1.443a22.74 22.74 0 0 0 5.812 6.92c.821.658 1.72 1.207 2.673 1.633 3.276 1.438 5.883.794 7.566-2.7 3.7-7.722 3.646-17.397.602-28.66zm-47.034 13.26a7.526 7.526 0 0 1-4.282-1.342 7.917 7.917 0 0 1-2.84-3.575 8.223 8.223 0 0 1-.44-4.605A8.057 8.057 0 0 1 8.63 8.581a7.63 7.63 0 0 1 3.945-2.182 7.47 7.47 0 0 1 4.453.452 7.768 7.768 0 0 1 3.458 2.935 8.164 8.164 0 0 1 1.3 4.428 8.114 8.114 0 0 1-2.257 5.632 7.584 7.584 0 0 1-5.445 2.337zm16.01-.035H26.51v-1.642h3.584v1.642zm6.752 0h-3.585v-1.642h3.585v1.642zM47.407 7.03a2.986 2.986 0 0 1 2.145-.918c.804 0 1.576.33 2.145.918.424.439.712.997.829 1.606a3.235 3.235 0 0 1-.173 1.81 3.115 3.115 0 0 1-1.117 1.408 2.961 2.961 0 0 1-1.684.528c-.6 0-1.185-.184-1.684-.528a3.115 3.115 0 0 1-1.117-1.407 3.235 3.235 0 0 1-.173-1.811 3.17 3.17 0 0 1 .83-1.606zm-4.834 9.432a3.192 3.192 0 0 1-.889-2.218c0-.832.32-1.63.889-2.218a2.983 2.983 0 0 1 2.145-.92c.804 0 1.576.331 2.145.92.281.291.505.637.657 1.018a3.231 3.231 0 0 1 0 2.4 3.142 3.142 0 0 1-.657 1.018 3.03 3.03 0 0 1-.985.68 2.946 2.946 0 0 1-1.16.24 2.984 2.984 0 0 1-2.146-.92zm9.075 4.94a2.966 2.966 0 0 1-3.845.399 3.14 3.14 0 0 1-1.225-1.703 3.249 3.249 0 0 1 .099-2.12c.27-.673.756-1.23 1.377-1.573a2.956 2.956 0 0 1 2.03-.312 3.028 3.028 0 0 1 1.76 1.092c.447.564.691 1.27.69 2 0 .412-.078.82-.232 1.201a3.138 3.138 0 0 1-.663 1.017h.009zm4.834-5a3.007 3.007 0 0 1-1.554.86c-.59.12-1.2.059-1.754-.179a3.061 3.061 0 0 1-1.363-1.156 3.216 3.216 0 0 1-.511-1.745c0-.62.178-1.228.511-1.744a3.06 3.06 0 0 1 1.363-1.157 2.943 2.943 0 0 1 1.754-.178c.589.12 1.13.42 1.554.859a3.2 3.2 0 0 1 .884 2.222 3.2 3.2 0 0 1-.892 2.219h.008z" fill="#61A568"/><path d="M14.085 8.212c-1.148 0-2.27.352-3.225 1.011a5.964 5.964 0 0 0-2.137 2.694 6.193 6.193 0 0 0-.33 3.468 6.068 6.068 0 0 0 1.588 3.073 5.747 5.747 0 0 0 2.972 1.643 5.626 5.626 0 0 0 3.353-.341 5.85 5.85 0 0 0 2.605-2.211 6.15 6.15 0 0 0 .978-3.335 6.112 6.112 0 0 0-1.701-4.243 5.713 5.713 0 0 0-4.103-1.76zm4.896 6.045a1 1 0 0 1-.278.694.933.933 0 0 1-.67.287H15.02v3.106a1 1 0 0 1-.3.654.936.936 0 0 1-.65.266.936.936 0 0 1-.652-.266 1 1 0 0 1-.3-.654v-3.115h-2.994a.933.933 0 0 1-.671-.287.998.998 0 0 1-.278-.694 1 1 0 0 1 .278-.694.933.933 0 0 1 .67-.287h3.008v-3.114a1.016 1.016 0 0 1 .255-.739.953.953 0 0 1 .696-.312.926.926 0 0 1 .695.312.994.994 0 0 1 .256.739v3.114h3.01c.252.003.491.11.667.295a1 1 0 0 1 .27.695zm35.348-1.246c-.263 0-.517.094-.72.267a1.181 1.181 0 0 0-.392.678c-.051.267-.011.543.113.783.124.239.324.426.567.53.243.103.513.117.764.037.25-.08.468-.246.613-.472a1.204 1.204 0 0 0-.145-1.482c-.213-.218-.5-.34-.8-.341zm20.448.777a6.54 6.54 0 0 1-1.188.426 4.98 4.98 0 0 1-1.18.162 5.344 5.344 0 0 1-2.545-.584 4.15 4.15 0 0 1-1.687-1.613 4.607 4.607 0 0 1-.594-2.346 5.731 5.731 0 0 1 .63-2.798 4.17 4.17 0 0 1 1.696-1.707 4.901 4.901 0 0 1 2.352-.567 6.113 6.113 0 0 1 1.559.192 5.6 5.6 0 0 1 1.287.499l-.582 1.706a4.41 4.41 0 0 0-.986-.38c-.34-.102-.69-.16-1.043-.17a3.12 3.12 0 0 0-2.273.768c-.277.302-.49.66-.625 1.053-.135.392-.19.81-.159 1.225-.012.532.12 1.057.384 1.514.255.432.626.777 1.068.994a3.44 3.44 0 0 0 1.568.346c.425.026.85-.058 1.237-.243V11.12h-1.572V9.33h3.391v3.98a2.431 2.431 0 0 1-.738.478zm7.318-1.374h-3.02l-.742 1.843h-1.77l4.125-9.812h.1l4.124 9.812H82.85l-.755-1.843zm-.594-1.562l-.879-2.29-.916 2.29h1.795zm14.062-6.399v9.812H93.77v-4.5l-2.97 4.364h-.042L87.9 10.046v4.21h-1.733v-9.81l4.616 6.77 4.728-6.77.053.008zm4.146.384v9.42h-1.795v-9.42h1.795zm10.556 0v9.812h-.05l-6.373-5.96.037 5.568h-1.819V4.445h.074l6.361 6.062-.037-5.67h1.807zm8.988 8.951a6.55 6.55 0 0 1-1.188.426 4.967 4.967 0 0 1-1.179.162 5.347 5.347 0 0 1-2.546-.584 4.153 4.153 0 0 1-1.687-1.613 4.612 4.612 0 0 1-.594-2.346 5.741 5.741 0 0 1 .631-2.799 4.17 4.17 0 0 1 1.696-1.706 4.902 4.902 0 0 1 2.359-.593 6.116 6.116 0 0 1 1.56.192c.446.112.879.28 1.287.5l-.582 1.706a4.403 4.403 0 0 0-.986-.38 4.032 4.032 0 0 0-1.044-.17 3.118 3.118 0 0 0-2.272.767c-.277.302-.49.661-.625 1.053-.135.393-.189.81-.159 1.225a2.919 2.919 0 0 0 .383 1.515 2.56 2.56 0 0 0 1.069.994 3.45 3.45 0 0 0 1.567.345 2.51 2.51 0 0 0 1.238-.243v-1.118h-1.572V9.33H120v3.98a2.428 2.428 0 0 1-.747.478zM73.87 29.436a4.49 4.49 0 0 1-1.65.294 4.668 4.668 0 0 1-2.476-.64 4.27 4.27 0 0 1-1.608-1.706 5.097 5.097 0 0 1-.557-2.372 5.587 5.587 0 0 1 .557-2.534 4.214 4.214 0 0 1 1.584-1.767 4.305 4.305 0 0 1 2.314-.618 4.916 4.916 0 0 1 1.534.23c.435.137.85.33 1.238.576l-.706 1.753a3.235 3.235 0 0 0-2.004-.767c-.462 0-.913.137-1.3.396-.407.267-.74.64-.965 1.08a3.218 3.218 0 0 0-.359 1.518 3.59 3.59 0 0 0 .334 1.592c.211.444.542.816.953 1.07.44.264.94.397 1.448.384.41.006.818-.07 1.2-.226a2.61 2.61 0 0 0 .825-.529l.743 1.664a3.99 3.99 0 0 1-1.106.602zm4.69-9.241v7.628h4.281v1.792h-6.076v-9.42h1.795zm8.006 6.796c.177.276.414.504.693.666.282.169.603.257.928.256.342.003.68-.085.978-.256.283-.158.523-.387.697-.666.164-.253.253-.549.256-.853v-5.943h1.77v5.973a3.43 3.43 0 0 1-.495 1.822 3.458 3.458 0 0 1-1.345 1.28 4.014 4.014 0 0 1-3.713 0 3.426 3.426 0 0 1-1.332-1.28 3.462 3.462 0 0 1-.487-1.822v-5.973h1.795v5.939c0 .305.09.604.255.857zm13.295-1.441c.27.367.415.817.413 1.28.03.4-.037.804-.197 1.17a2.389 2.389 0 0 1-.715.932 3.712 3.712 0 0 1-2.268.674h-3.037v-9.41h2.674a3.78 3.78 0 0 1 2.276.605c.27.198.488.463.632.771.145.308.211.65.194.991.009.43-.09.854-.285 1.233a2.215 2.215 0 0 1-.805.853c.44.2.824.509 1.118.9zm-4.013-1.502h1.097a.948.948 0 0 0 .417-.07.977.977 0 0 0 .35-.246c.183-.212.28-.488.272-.772a.879.879 0 0 0-.068-.402.85.85 0 0 0-.24-.323 1.324 1.324 0 0 0-.855-.248h-.965l-.008 2.06zm2.17 3.575a.863.863 0 0 0 .31-.334.9.9 0 0 0 .102-.451c0-.666-.512-.999-1.535-.999h-1.027v2.048h1.151c.35.012.697-.08.998-.264z" fill="#61A568"/></svg>